<mxfile host="app.diagrams.net" agent="Mozilla/5.0 (X11; Linux x86_64) AppleWebKit/537.36 (KHTML, like Gecko) Chrome/139.0.0.0 Safari/537.36" version="28.2.0">
  <diagram name="Página-1" id="3QtFrNminv7boJr-y0DP">
    <mxGraphModel dx="1148" dy="522" grid="1" gridSize="10" guides="1" tooltips="1" connect="1" arrows="1" fold="1" page="1" pageScale="1" pageWidth="827" pageHeight="1169" math="0" shadow="0">
      <root>
        <mxCell id="0" />
        <mxCell id="1" parent="0" />
        <mxCell id="vNBXoHa1Ooy1lN3gcc5z-2" value="" style="edgeStyle=orthogonalEdgeStyle;rounded=0;orthogonalLoop=1;jettySize=auto;html=1;" edge="1" parent="1" source="BJnI6T1Wv4a64cd1YlWq-1" target="BJnI6T1Wv4a64cd1YlWq-5">
          <mxGeometry relative="1" as="geometry" />
        </mxCell>
        <mxCell id="BJnI6T1Wv4a64cd1YlWq-1" value="&lt;div&gt;&lt;br&gt;&lt;/div&gt;&lt;div&gt;Saldo inicial&lt;/div&gt;" style="html=1;strokeWidth=2;shape=manualInput;whiteSpace=wrap;rounded=1;size=26;arcSize=11;" parent="1" vertex="1">
          <mxGeometry x="140" y="138" width="100" height="60" as="geometry" />
        </mxCell>
        <mxCell id="vNBXoHa1Ooy1lN3gcc5z-4" value="" style="edgeStyle=orthogonalEdgeStyle;rounded=0;orthogonalLoop=1;jettySize=auto;html=1;" edge="1" parent="1" source="BJnI6T1Wv4a64cd1YlWq-5" target="BJnI6T1Wv4a64cd1YlWq-11">
          <mxGeometry relative="1" as="geometry" />
        </mxCell>
        <mxCell id="BJnI6T1Wv4a64cd1YlWq-5" value="Encerrar = &#39;n&#39;" style="rounded=1;whiteSpace=wrap;html=1;absoluteArcSize=1;arcSize=14;strokeWidth=2;" parent="1" vertex="1">
          <mxGeometry x="135" y="260" width="110" height="40" as="geometry" />
        </mxCell>
        <mxCell id="vNBXoHa1Ooy1lN3gcc5z-34" value="" style="edgeStyle=orthogonalEdgeStyle;rounded=0;orthogonalLoop=1;jettySize=auto;html=1;" edge="1" parent="1" source="BJnI6T1Wv4a64cd1YlWq-11" target="vNBXoHa1Ooy1lN3gcc5z-33">
          <mxGeometry relative="1" as="geometry" />
        </mxCell>
        <mxCell id="vNBXoHa1Ooy1lN3gcc5z-37" value="" style="edgeStyle=orthogonalEdgeStyle;rounded=0;orthogonalLoop=1;jettySize=auto;html=1;" edge="1" parent="1" source="BJnI6T1Wv4a64cd1YlWq-11" target="vNBXoHa1Ooy1lN3gcc5z-36">
          <mxGeometry relative="1" as="geometry" />
        </mxCell>
        <mxCell id="BJnI6T1Wv4a64cd1YlWq-11" value="&lt;div&gt;&lt;br&gt;&lt;/div&gt;&amp;nbsp; &amp;nbsp;1 - Entrada&lt;div&gt;2 - Saída&lt;/div&gt;" style="html=1;strokeWidth=2;shape=manualInput;whiteSpace=wrap;rounded=1;size=26;arcSize=11;" parent="1" vertex="1">
          <mxGeometry x="140" y="350" width="100" height="60" as="geometry" />
        </mxCell>
        <mxCell id="BJnI6T1Wv4a64cd1YlWq-21" value="" style="edgeStyle=orthogonalEdgeStyle;rounded=0;orthogonalLoop=1;jettySize=auto;html=1;" parent="1" source="BJnI6T1Wv4a64cd1YlWq-18" target="BJnI6T1Wv4a64cd1YlWq-20" edge="1">
          <mxGeometry relative="1" as="geometry" />
        </mxCell>
        <mxCell id="BJnI6T1Wv4a64cd1YlWq-18" value="saldo = saldo + quantidade" style="rounded=1;whiteSpace=wrap;html=1;absoluteArcSize=1;arcSize=14;strokeWidth=2;" parent="1" vertex="1">
          <mxGeometry x="470" y="360" width="110" height="40" as="geometry" />
        </mxCell>
        <mxCell id="BJnI6T1Wv4a64cd1YlWq-20" value="&amp;nbsp; &quot;Entrada: &quot; + quantidade" style="strokeWidth=2;html=1;shape=mxgraph.flowchart.display;whiteSpace=wrap;" parent="1" vertex="1">
          <mxGeometry x="700" y="355" width="90" height="50" as="geometry" />
        </mxCell>
        <mxCell id="BJnI6T1Wv4a64cd1YlWq-31" value="" style="edgeStyle=orthogonalEdgeStyle;rounded=0;orthogonalLoop=1;jettySize=auto;html=1;" parent="1" source="BJnI6T1Wv4a64cd1YlWq-27" target="BJnI6T1Wv4a64cd1YlWq-30" edge="1">
          <mxGeometry relative="1" as="geometry" />
        </mxCell>
        <mxCell id="vNBXoHa1Ooy1lN3gcc5z-5" value="" style="edgeStyle=orthogonalEdgeStyle;rounded=0;orthogonalLoop=1;jettySize=auto;html=1;" edge="1" parent="1" source="BJnI6T1Wv4a64cd1YlWq-27" target="BJnI6T1Wv4a64cd1YlWq-34">
          <mxGeometry relative="1" as="geometry" />
        </mxCell>
        <mxCell id="BJnI6T1Wv4a64cd1YlWq-27" value="saldo &amp;gt;= quantidade" style="strokeWidth=2;html=1;shape=mxgraph.flowchart.decision;whiteSpace=wrap;" parent="1" vertex="1">
          <mxGeometry x="298" y="485" width="100" height="100" as="geometry" />
        </mxCell>
        <mxCell id="vNBXoHa1Ooy1lN3gcc5z-6" value="" style="edgeStyle=orthogonalEdgeStyle;rounded=0;orthogonalLoop=1;jettySize=auto;html=1;" edge="1" parent="1" source="BJnI6T1Wv4a64cd1YlWq-30" target="BJnI6T1Wv4a64cd1YlWq-37">
          <mxGeometry relative="1" as="geometry" />
        </mxCell>
        <mxCell id="BJnI6T1Wv4a64cd1YlWq-30" value="saldo = saldo - quantidade" style="rounded=1;whiteSpace=wrap;html=1;absoluteArcSize=1;arcSize=14;strokeWidth=2;" parent="1" vertex="1">
          <mxGeometry x="470" y="515" width="110" height="40" as="geometry" />
        </mxCell>
        <mxCell id="BJnI6T1Wv4a64cd1YlWq-32" value="&lt;b&gt;&lt;font style=&quot;font-size: 18px;&quot;&gt;V&lt;/font&gt;&lt;/b&gt;" style="text;strokeColor=none;align=center;fillColor=none;html=1;verticalAlign=middle;whiteSpace=wrap;rounded=0;" parent="1" vertex="1">
          <mxGeometry x="393" y="510" width="60" height="30" as="geometry" />
        </mxCell>
        <mxCell id="BJnI6T1Wv4a64cd1YlWq-34" value="&quot;Saldo insuficiente&quot;" style="strokeWidth=2;html=1;shape=mxgraph.flowchart.display;whiteSpace=wrap;" parent="1" vertex="1">
          <mxGeometry x="303" y="635" width="90" height="50" as="geometry" />
        </mxCell>
        <mxCell id="BJnI6T1Wv4a64cd1YlWq-36" value="&lt;b&gt;&lt;font style=&quot;font-size: 18px;&quot;&gt;F&lt;/font&gt;&lt;/b&gt;" style="text;strokeColor=none;align=center;fillColor=none;html=1;verticalAlign=middle;whiteSpace=wrap;rounded=0;" parent="1" vertex="1">
          <mxGeometry x="333" y="585" width="60" height="30" as="geometry" />
        </mxCell>
        <mxCell id="vNBXoHa1Ooy1lN3gcc5z-32" style="edgeStyle=orthogonalEdgeStyle;rounded=0;orthogonalLoop=1;jettySize=auto;html=1;" edge="1" parent="1" source="BJnI6T1Wv4a64cd1YlWq-37">
          <mxGeometry relative="1" as="geometry">
            <mxPoint x="740" y="660" as="targetPoint" />
          </mxGeometry>
        </mxCell>
        <mxCell id="BJnI6T1Wv4a64cd1YlWq-37" value="&amp;nbsp; &quot;Saída: &quot; + quantidade" style="strokeWidth=2;html=1;shape=mxgraph.flowchart.display;whiteSpace=wrap;" parent="1" vertex="1">
          <mxGeometry x="480" y="635" width="90" height="50" as="geometry" />
        </mxCell>
        <mxCell id="vNBXoHa1Ooy1lN3gcc5z-19" value="" style="edgeStyle=orthogonalEdgeStyle;rounded=0;orthogonalLoop=1;jettySize=auto;html=1;" edge="1" parent="1" source="BJnI6T1Wv4a64cd1YlWq-39" target="BJnI6T1Wv4a64cd1YlWq-45">
          <mxGeometry relative="1" as="geometry" />
        </mxCell>
        <mxCell id="BJnI6T1Wv4a64cd1YlWq-39" value="saldo" style="strokeWidth=2;html=1;shape=mxgraph.flowchart.display;whiteSpace=wrap;" parent="1" vertex="1">
          <mxGeometry x="700" y="760" width="90" height="50" as="geometry" />
        </mxCell>
        <mxCell id="vNBXoHa1Ooy1lN3gcc5z-40" value="" style="edgeStyle=orthogonalEdgeStyle;rounded=0;orthogonalLoop=1;jettySize=auto;html=1;" edge="1" parent="1" source="BJnI6T1Wv4a64cd1YlWq-45" target="vNBXoHa1Ooy1lN3gcc5z-39">
          <mxGeometry relative="1" as="geometry" />
        </mxCell>
        <mxCell id="BJnI6T1Wv4a64cd1YlWq-45" value="&lt;div&gt;&lt;br&gt;&lt;/div&gt;Encerrar? (s/n)" style="html=1;strokeWidth=2;shape=manualInput;whiteSpace=wrap;rounded=1;size=26;arcSize=11;" parent="1" vertex="1">
          <mxGeometry x="695" y="950" width="100" height="60" as="geometry" />
        </mxCell>
        <mxCell id="BJnI6T1Wv4a64cd1YlWq-54" value="" style="edgeStyle=orthogonalEdgeStyle;rounded=0;orthogonalLoop=1;jettySize=auto;html=1;" parent="1" source="BJnI6T1Wv4a64cd1YlWq-48" target="BJnI6T1Wv4a64cd1YlWq-53" edge="1">
          <mxGeometry relative="1" as="geometry" />
        </mxCell>
        <mxCell id="BJnI6T1Wv4a64cd1YlWq-48" value="&amp;nbsp; &quot;Sistema encerrado&quot;" style="strokeWidth=2;html=1;shape=mxgraph.flowchart.display;whiteSpace=wrap;" parent="1" vertex="1">
          <mxGeometry x="700" y="1150" width="90" height="50" as="geometry" />
        </mxCell>
        <mxCell id="BJnI6T1Wv4a64cd1YlWq-53" value="Fim" style="ellipse;whiteSpace=wrap;html=1;" parent="1" vertex="1">
          <mxGeometry x="690" y="1249" width="110" height="60" as="geometry" />
        </mxCell>
        <mxCell id="vNBXoHa1Ooy1lN3gcc5z-3" value="" style="edgeStyle=orthogonalEdgeStyle;rounded=0;orthogonalLoop=1;jettySize=auto;html=1;" edge="1" parent="1" source="BJnI6T1Wv4a64cd1YlWq-55" target="BJnI6T1Wv4a64cd1YlWq-1">
          <mxGeometry relative="1" as="geometry" />
        </mxCell>
        <mxCell id="BJnI6T1Wv4a64cd1YlWq-55" value="Início" style="ellipse;whiteSpace=wrap;html=1;" parent="1" vertex="1">
          <mxGeometry x="135" y="24" width="110" height="60" as="geometry" />
        </mxCell>
        <mxCell id="vNBXoHa1Ooy1lN3gcc5z-14" style="edgeStyle=orthogonalEdgeStyle;rounded=0;orthogonalLoop=1;jettySize=auto;html=1;entryX=0.5;entryY=0;entryDx=0;entryDy=0;entryPerimeter=0;" edge="1" parent="1" source="BJnI6T1Wv4a64cd1YlWq-20" target="BJnI6T1Wv4a64cd1YlWq-39">
          <mxGeometry relative="1" as="geometry" />
        </mxCell>
        <mxCell id="vNBXoHa1Ooy1lN3gcc5z-26" style="edgeStyle=orthogonalEdgeStyle;rounded=0;orthogonalLoop=1;jettySize=auto;html=1;" edge="1" parent="1" source="BJnI6T1Wv4a64cd1YlWq-45">
          <mxGeometry relative="1" as="geometry">
            <mxPoint x="140" y="990" as="targetPoint" />
            <Array as="points">
              <mxPoint x="160" y="990" />
            </Array>
          </mxGeometry>
        </mxCell>
        <mxCell id="vNBXoHa1Ooy1lN3gcc5z-27" style="edgeStyle=orthogonalEdgeStyle;rounded=0;orthogonalLoop=1;jettySize=auto;html=1;entryX=-0.03;entryY=0.633;entryDx=0;entryDy=0;entryPerimeter=0;exitX=0.554;exitY=-0.024;exitDx=0;exitDy=0;exitPerimeter=0;" edge="1" parent="1" source="vNBXoHa1Ooy1lN3gcc5z-42" target="BJnI6T1Wv4a64cd1YlWq-11">
          <mxGeometry relative="1" as="geometry">
            <mxPoint x="80" y="960" as="sourcePoint" />
            <Array as="points">
              <mxPoint x="81" y="388" />
            </Array>
          </mxGeometry>
        </mxCell>
        <mxCell id="vNBXoHa1Ooy1lN3gcc5z-31" style="edgeStyle=orthogonalEdgeStyle;rounded=0;orthogonalLoop=1;jettySize=auto;html=1;entryX=0;entryY=0.5;entryDx=0;entryDy=0;entryPerimeter=0;" edge="1" parent="1" source="BJnI6T1Wv4a64cd1YlWq-34" target="BJnI6T1Wv4a64cd1YlWq-39">
          <mxGeometry relative="1" as="geometry">
            <Array as="points">
              <mxPoint x="348" y="785" />
            </Array>
          </mxGeometry>
        </mxCell>
        <mxCell id="vNBXoHa1Ooy1lN3gcc5z-35" value="" style="edgeStyle=orthogonalEdgeStyle;rounded=0;orthogonalLoop=1;jettySize=auto;html=1;" edge="1" parent="1" source="vNBXoHa1Ooy1lN3gcc5z-33" target="BJnI6T1Wv4a64cd1YlWq-18">
          <mxGeometry relative="1" as="geometry" />
        </mxCell>
        <mxCell id="vNBXoHa1Ooy1lN3gcc5z-33" value="1 - Entrada" style="rounded=1;whiteSpace=wrap;html=1;absoluteArcSize=1;arcSize=14;strokeWidth=2;" vertex="1" parent="1">
          <mxGeometry x="293" y="360" width="110" height="40" as="geometry" />
        </mxCell>
        <mxCell id="vNBXoHa1Ooy1lN3gcc5z-38" value="" style="edgeStyle=orthogonalEdgeStyle;rounded=0;orthogonalLoop=1;jettySize=auto;html=1;" edge="1" parent="1" source="vNBXoHa1Ooy1lN3gcc5z-36" target="BJnI6T1Wv4a64cd1YlWq-27">
          <mxGeometry relative="1" as="geometry" />
        </mxCell>
        <mxCell id="vNBXoHa1Ooy1lN3gcc5z-36" value="2 - Saída" style="rounded=1;whiteSpace=wrap;html=1;absoluteArcSize=1;arcSize=14;strokeWidth=2;" vertex="1" parent="1">
          <mxGeometry x="135" y="515" width="110" height="40" as="geometry" />
        </mxCell>
        <mxCell id="vNBXoHa1Ooy1lN3gcc5z-41" value="" style="edgeStyle=orthogonalEdgeStyle;rounded=0;orthogonalLoop=1;jettySize=auto;html=1;" edge="1" parent="1" source="vNBXoHa1Ooy1lN3gcc5z-39" target="BJnI6T1Wv4a64cd1YlWq-48">
          <mxGeometry relative="1" as="geometry" />
        </mxCell>
        <mxCell id="vNBXoHa1Ooy1lN3gcc5z-39" value="Sim" style="rounded=1;whiteSpace=wrap;html=1;absoluteArcSize=1;arcSize=14;strokeWidth=2;" vertex="1" parent="1">
          <mxGeometry x="690" y="1060" width="110" height="40" as="geometry" />
        </mxCell>
        <mxCell id="vNBXoHa1Ooy1lN3gcc5z-42" value="Não" style="rounded=1;whiteSpace=wrap;html=1;absoluteArcSize=1;arcSize=14;strokeWidth=2;" vertex="1" parent="1">
          <mxGeometry x="25" y="970" width="110" height="40" as="geometry" />
        </mxCell>
      </root>
    </mxGraphModel>
  </diagram>
</mxfile>
